<?xml version="1.0" encoding="UTF-8" standalone="no"?>
<svg xmlns:dc="http://purl.org/dc/elements/1.1/"
     xmlns:cc="http://creativecommons.org/ns#"
     xmlns:rdf="http://www.w3.org/1999/02/22-rdf-syntax-ns#"
     xmlns:svg="http://www.w3.org/2000/svg"
     xmlns="http://www.w3.org/2000/svg"
     xmlns:sodipodi="http://sodipodi.sourceforge.net/DTD/sodipodi-0.dtd"
     xmlns:inkscape="http://www.inkscape.org/namespaces/inkscape"
     inkscape:version="1.0rc1 (09960d6, 2020-04-09)"
     height="100"
     width="100"
     sodipodi:docname="noun_process_2519390.svg"
     id="svg332"
     viewBox="0 0 100 100"
     y="0px"
     x="0px"
     version="1.1">
	<metadata id="metadata338">
		<rdf:RDF>
			<cc:Work rdf:about="">
				<dc:format>image/svg+xml</dc:format>
				<dc:type rdf:resource="http://purl.org/dc/dcmitype/StillImage"/>
				<dc:title/>
			</cc:Work>
		</rdf:RDF>
	</metadata>
	<defs id="defs336"/>
	<sodipodi:namedview inkscape:current-layer="svg332"
	                    inkscape:window-maximized="0"
	                    inkscape:window-y="13"
	                    inkscape:window-x="19"
	                    inkscape:cy="62.5"
	                    inkscape:cx="47.084548"
	                    inkscape:zoom="2.744"
	                    showgrid="false"
	                    id="namedview334"
	                    inkscape:window-height="480"
	                    inkscape:window-width="640"
	                    inkscape:pageshadow="2"
	                    inkscape:pageopacity="0"
	                    guidetolerance="10"
	                    gridtolerance="10"
	                    objecttolerance="10"
	                    borderopacity="1"
	                    bordercolor="#666666"
	                    pagecolor="#ffffff"/>
	<g id="g326"
	   transform="matrix(1.1016355,0,0,1.1016355,-4.7114483,-1054.608)">
		<path inkscape:connector-curvature="0"
		      id="path324"
		      transform="translate(0,952.36218)"
		      d="M 50,7 C 26.263599,7 7,26.26367 7,50 7,73.7365 26.2636,93 50,93 a 1.0001,1.0001 0 1 0 0,-2 C 27.344478,91 9,72.6557 9,50 9,27.34455 27.344479,9 50,9 72.65552,9 91,27.34455 91,50 91,61.212521 86.506035,71.350213 79.21875,78.75 l 0.375,-7.09375 a 1.0001,1.0001 0 0 0 -1.0625,-1.0625 1.0001,1.0001 0 0 0 -0.9375,0.96875 l -0.5,9.84375 a 1.0001,1.0001 0 0 0 1.28125,1 l 10.375,-3 A 1.0001,1.0001 0 1 0 88.1875,77.5 l -6.90625,2 C 88.544526,71.800796 93,61.417218 93,50 93,26.26367 73.7364,7 50,7 Z m -6.46875,15.03125 a 1.0001,1.0001 0 0 0 -0.90625,1 v 5.03125 c -1.02666,0.34067 -2.038257,0.74448 -3,1.21875 L 36.0625,25.75 a 1.0001,1.0001 0 0 0 -1.40625,0 l -9,8.96875 a 1.0001,1.0001 0 0 0 0,1.40625 l 3.5625,3.5625 c -0.480238,0.96383 -0.905906,1.93945 -1.25,2.96875 h -5.0625 a 1.0001,1.0001 0 0 0 -1,1 v 12.6875 a 1.0001,1.0001 0 0 0 1,1 h 5.0625 c 0.343051,1.0227 0.772503,2.01085 1.25,2.96875 l -3.5625,3.53125 a 1.0001,1.0001 0 0 0 0,1.40625 l 9,8.96875 a 1.0001,1.0001 0 0 0 1.40625,0 L 39.625,70.6875 c 0.961739,0.4743 1.973391,0.87805 3,1.21875 v 5.03125 a 1.0001,1.0001 0 0 0 1,1 h 12.75 a 1.0001,1.0001 0 0 0 1,-1 v -5.03125 c 1.026599,-0.3407 2.038254,-0.74445 3,-1.21875 0.05875,0.058 0.08876,0.08895 0.15625,0.15625 0.377963,0.3754 0.871836,0.8735 1.375,1.375 1.006328,1.0029 2.03125,2 2.03125,2 a 1.0001,1.0001 0 0 0 1.40625,0 l 9,-8.96875 a 1.0001,1.0001 0 0 0 0,-1.40625 c 0,0 -0.991413,-0.999 -2,-2 -0.504294,-0.5006 -1.029635,-0.9994 -1.40625,-1.375 -0.06486,-0.065 -0.09962,-0.09995 -0.15625,-0.15625 0.477489,-0.9579 0.906943,-1.94605 1.25,-2.96875 h 5.0625 a 1.0001,1.0001 0 0 0 1,-1 v -12.6875 a 1.0001,1.0001 0 0 0 -1,-1 h -5.0625 c -0.347185,-1.03852 -0.764275,-2.02833 -1.25,-3 0.05661,-0.0566 0.09141,-0.0915 0.15625,-0.15625 0.376531,-0.37568 0.902038,-0.87467 1.40625,-1.375 1.008424,-1.00066 2,-2 2,-2 a 1.0001,1.0001 0 0 0 0,-1.40625 l -9,-8.96875 a 1.0001,1.0001 0 0 0 -1.40625,0 c 0,0 -1.025149,0.99647 -2.03125,2 -0.50305,0.50177 -0.997451,1.00027 -1.375,1.375 -0.07174,0.0712 -0.09449,0.12635 -0.15625,0.1875 -0.964939,-0.47647 -1.969605,-0.90809 -3,-1.25 v -5.03125 a 1.0001,1.0001 0 0 0 -1,-1 h -12.75 a 1.0001,1.0001 0 0 0 -0.09375,0 z m 1.09375,2 h 10.75 v 4.6875 a 1.0001,1.0001 0 0 0 0.71875,0.96875 c 1.407004,0.41793 2.770592,0.97804 4.03125,1.65625 5e-5,3e-5 0.968578,10e-5 0.96875,0 1.72e-4,-10e-5 0.07453,-0.0483 0.09375,-0.0625 0.03843,-0.0284 0.05194,-0.0534 0.0625,-0.0625 0.02112,-0.0181 0.05379,-0.02325 0.0625,-0.03125 0.01742,-0.0162 0.01383,-0.01455 0.03125,-0.03125 0.03485,-0.0336 0.06825,-0.10047 0.125,-0.15625 0.113503,-0.11155 0.278808,-0.24898 0.46875,-0.4375 0.379883,-0.37705 0.902617,-0.9039 1.40625,-1.40625 0.661019,-0.65933 0.936722,-0.93695 1.3125,-1.3125 l 7.5625,7.59375 c -0.381517,0.37777 -0.634398,0.63938 -1.28125,1.28125 -0.50486,0.50097 -1.027139,0.99674 -1.40625,1.375 -0.189556,0.18913 -0.325087,0.35536 -0.4375,0.46875 -0.05621,0.0567 -0.122002,0.0897 -0.15625,0.125 -0.01712,0.0177 -0.0142,0.0442 -0.03125,0.0625 -0.0085,0.009 -0.01184,0.0091 -0.03125,0.03125 -0.0097,0.0113 -0.03298,0.022 -0.0625,0.0625 -0.01476,0.0202 -0.0624,0.12482 -0.0625,0.125 -9.9e-5,1.8e-4 -0.06252,0.84369 -0.0625,0.84375 a 1.0001,1.0001 0 0 0 0.0625,0.09375 c 0.681278,1.25364 1.236342,2.63206 1.65625,4.03125 a 1.0001,1.0001 0 0 0 0.96875,0.71875 h 4.71875 v 10.6875 H 71.375 a 1.0001,1.0001 0 0 0 -0.96875,0.6875 c -0.419909,1.3992 -0.974953,2.77745 -1.65625,4.03125 -2.7e-5,1e-4 -9.6e-5,0.96865 0,0.96875 9.6e-5,2e-4 0.04814,0.07475 0.0625,0.09375 0.02872,0.038 0.05335,0.0525 0.0625,0.0625 0.0183,0.021 0.02312,0.0545 0.03125,0.0625 0.01627,0.017 0.01437,0.01425 0.03125,0.03125 0.03377,0.035 0.10019,0.069 0.15625,0.125 0.112121,0.113 0.248025,0.27975 0.4375,0.46875 0.378951,0.378 0.90137,0.8739 1.40625,1.375 0.646877,0.642 0.899679,0.90335 1.28125,1.28125 l -7.5625,7.59375 c -0.375743,-0.3749 -0.651606,-0.6538 -1.3125,-1.3125 -0.503538,-0.5018 -1.026794,-0.998 -1.40625,-1.375 -0.189728,-0.1885 -0.324856,-0.35755 -0.4375,-0.46875 -0.05632,-0.056 -0.123144,-0.093 -0.15625,-0.125 -0.01655,-0.016 -0.01743,-0.0485 -0.03125,-0.0625 -0.0069,-0.01 -0.01778,0.012 -0.03125,0 C 61.27455,68.77125 61.27185,68.768 61.25,68.75 61.23906,68.74 61.18767,68.6875 61.1875,68.6875 61.187328,68.6874 60.5938,68.5 60.59375,68.5 A 1.0001,1.0001 0 0 0 60.125,68.625 c -1.260651,0.6782 -2.624153,1.23815 -4.03125,1.65625 A 1.0001,1.0001 0 0 0 55.375,71.25 v 4.6875 H 44.625 V 71.25 A 1.0001,1.0001 0 0 0 43.90625,70.28125 C 42.499134,69.86315 41.135624,69.3032 39.875,68.625 a 1.0001,1.0001 0 0 0 -1.1875,0.1875 L 35.375,72.125 27.78125,64.5625 31.09375,61.25 A 1.0001,1.0001 0 0 0 31.25,60.0625 C 30.568692,58.8087 30.013636,57.43045 29.59375,56.03125 A 1.0001,1.0001 0 0 0 28.625,55.34375 H 23.90625 V 44.65625 H 28.625 a 1.0001,1.0001 0 0 0 0.96875,-0.71875 c 0.419885,-1.39918 0.97496,-2.77761 1.65625,-4.03125 a 1.0001,1.0001 0 0 0 -0.15625,-1.1875 l -3.3125,-3.3125 7.5625,-7.5625 3.34375,3.34375 a 1.0001,1.0001 0 0 0 1.1875,0.15625 c 1.260631,-0.67821 2.624227,-1.23832 4.03125,-1.65625 A 1.0001,1.0001 0 0 0 44.625,28.71875 Z M 50,37.875 c -6.697665,0 -12.15625,5.45279 -12.15625,12.125 0,6.6724 5.458591,12.09375 12.15625,12.09375 6.697644,0 12.15625,-5.42135 12.15625,-12.09375 0,-6.67221 -5.458599,-12.125 -12.15625,-12.125 z m 20.53125,1.1875 h 0.03125 c -2e-6,0 5.15e-4,0.054 0,0.0625 -0.01092,-0.0205 -0.02027,-0.0421 -0.03125,-0.0625 z M 50,39.875 c 5.622167,0 10.15625,4.53911 10.15625,10.125 0,5.5862 -4.534076,10.09375 -10.15625,10.09375 C 44.377809,60.09375 39.84375,55.5862 39.84375,50 39.84375,44.41411 44.377815,39.875 50,39.875 Z"
		      style="color:#000000;font-style:normal;font-variant:normal;font-weight:normal;font-stretch:normal;font-size:medium;line-height:normal;font-family:Sans;-inkscape-font-specification:Sans;text-indent:0;text-align:start;text-decoration:none;text-decoration-line:none;letter-spacing:normal;word-spacing:normal;text-transform:none;writing-mode:lr-tb;direction:ltr;baseline-shift:baseline;text-anchor:start;display:inline;overflow:visible;visibility:visible;opacity:1;fill:#000000;fill-opacity:1;stroke:none;stroke-width:2;marker:none;enable-background:accumulate"/>
	</g>
</svg>