<?xml version="1.0" standalone="no"?>
<svg version="1.0" xmlns="http://www.w3.org/2000/svg"
 width="192.000000pt" height="192.000000pt" viewBox="0 0 192.000000 192.000000"
 preserveAspectRatio="xMidYMid meet">

<g transform="translate(0.000000,192.000000) scale(0.100000,-0.100000)"
fill="#000000" stroke="none">
<path d="M105 1901 c-84 -38 -105 -89 -105 -246 l0 -117 33 44 c71 93 193 122
287 66 78 -45 114 -114 108 -204 l-3 -56 134 -79 133 -80 35 36 c48 49 107 77
178 82 57 5 79 0 176 -41 13 -6 33 16 88 93 l70 101 -24 36 c-86 127 2 294
154 294 84 0 145 -39 176 -113 27 -64 13 -150 -33 -200 -42 -47 -129 -70 -199
-53 -31 7 -33 6 -106 -99 l-75 -106 20 -35 c11 -19 26 -53 33 -77 l12 -42 182
-3 181 -2 10 27 c18 52 38 78 80 108 37 26 50 30 110 30 61 0 73 -4 114 -32
l46 -33 0 286 c0 233 -3 291 -15 321 -21 50 -42 72 -90 94 -38 18 -85 19 -855
19 -770 0 -817 -1 -855 -19z"/>
<path d="M1 765 c-1 -581 1 -623 18 -660 22 -48 44 -69 94 -90 30 -12 92 -15
362 -15 l325 0 0 385 0 385 28 -7 c36 -11 160 -10 195 1 l27 8 0 -386 0 -386
363 0 c330 0 366 2 402 19 48 22 69 44 90 94 13 31 15 100 15 444 0 327 -2
404 -13 391 -53 -65 -162 -86 -237 -46 -48 26 -88 76 -97 121 l-6 27 -185 -2
-186 -3 -6 -30 c-42 -200 -296 -281 -447 -142 -65 60 -87 107 -87 192 -1 39 2
81 6 95 7 23 -1 30 -125 102 l-132 77 -35 -34 c-106 -103 -284 -81 -350 43
-19 37 -19 36 -19 -583z"/>
<path d="M886 1114 c-23 -22 -20 -71 3 -84 29 -15 56 -12 74 8 47 52 -28 126
-77 76z"/>
<path d="M1735 1104 c-23 -23 -15 -58 13 -62 44 -7 67 32 36 62 -20 20 -29 20
-49 0z"/>
</g>
</svg>
