<?xml version="1.0" standalone="no"?>
<svg version="1.0" xmlns="http://www.w3.org/2000/svg"
 width="800.000000pt" height="800.000000pt" viewBox="0 0 800.000000 800.000000"
 preserveAspectRatio="xMidYMid meet">

<g transform="translate(0.000000,800.000000) scale(0.100000,-0.100000)"
fill="#000000" stroke="none">
<path d="M686 7993 c-4 -4 -41 -10 -82 -14 -41 -4 -81 -11 -87 -16 -7 -5 -38
-17 -69 -28 -32 -10 -58 -22 -58 -26 0 -4 -11 -11 -24 -16 -67 -24 -235 -192
-259 -259 -5 -13 -12 -24 -16 -24 -4 0 -16 -26 -26 -57 -11 -32 -23 -63 -28
-70 -29 -40 -30 -229 -30 -3483 0 -3254 1 -3443 30 -3483 5 -7 17 -38 28 -70
10 -31 22 -57 26 -57 4 0 11 -11 16 -24 24 -67 192 -235 259 -259 13 -5 24
-12 24 -16 0 -4 26 -16 58 -26 31 -11 62 -23 69 -28 40 -29 229 -30 3483 -30
3254 0 3443 1 3483 30 7 5 38 17 70 28 31 10 57 22 57 26 0 4 11 11 24 16 67
24 235 192 259 259 5 13 12 24 16 24 4 0 16 26 26 58 11 31 23 62 28 69 29 40
30 229 30 3483 0 3254 -1 3443 -30 3483 -5 7 -17 38 -28 70 -10 31 -22 57 -26
57 -4 0 -11 11 -16 24 -24 67 -192 235 -259 259 -13 5 -24 12 -24 16 0 4 -26
16 -57 26 -32 11 -63 23 -70 28 -39 28 -237 30 -3479 34 -1821 2 -3314 0
-3318 -4z m1279 -882 c44 -7 84 -16 90 -22 5 -5 17 -9 26 -9 24 0 142 -55 206
-96 59 -37 213 -183 213 -201 0 -6 3 -13 8 -15 27 -12 132 -225 132 -270 0
-13 5 -29 11 -35 16 -16 23 -265 10 -333 -20 -110 -34 -160 -42 -160 -5 0 -9
-9 -9 -21 0 -25 -50 -117 -103 -189 -45 -61 -151 -170 -165 -170 -5 0 -17 -9
-27 -19 -9 -11 -56 -39 -104 -61 -180 -87 -206 -93 -386 -94 -145 -1 -217 10
-300 45 -125 52 -201 96 -254 148 -17 17 -36 31 -41 31 -6 0 -10 3 -10 8 0 4
-17 25 -38 47 -68 72 -152 204 -152 239 0 9 -4 16 -9 16 -5 0 -12 19 -16 43
-4 23 -11 47 -16 53 -5 6 -14 57 -19 114 -12 109 1 315 21 335 5 5 9 17 9 28
0 10 14 48 30 84 17 35 30 68 30 73 0 5 4 10 8 12 4 2 19 21 32 43 14 22 34
51 45 65 47 58 170 170 186 170 5 0 9 4 9 9 0 5 10 13 23 17 12 4 24 10 27 13
9 11 114 59 145 67 17 4 35 10 40 15 6 4 46 12 89 18 43 5 81 12 84 16 8 8
111 1 217 -14z m3954 -1999 c51 -6 107 -16 125 -21 86 -26 144 -41 159 -41 10
0 17 -4 17 -9 0 -5 18 -12 40 -16 22 -4 40 -11 40 -16 0 -5 6 -9 14 -9 28 0
225 -111 234 -132 2 -5 9 -8 15 -8 17 -1 237 -218 237 -234 0 -3 20 -34 45
-70 25 -37 45 -71 45 -76 0 -6 5 -10 10 -10 6 0 10 -6 10 -12 0 -7 21 -53 45
-103 25 -49 45 -100 45 -112 0 -13 5 -23 10 -23 6 0 10 -9 10 -21 0 -12 6 -35
14 -52 35 -84 83 -322 97 -492 5 -60 15 -148 22 -195 18 -125 17 -2452 0
-2457 -7 -3 -13 -11 -13 -19 0 -22 -70 -84 -102 -91 -15 -3 -31 -10 -34 -14
-7 -12 -1031 -12 -1038 0 -3 4 -18 11 -33 14 -34 7 -88 54 -97 85 -4 12 -11
22 -16 22 -6 0 -11 444 -13 1093 -3 1067 -9 1277 -37 1328 -4 9 -11 37 -15 63
-4 25 -11 49 -16 52 -5 3 -9 13 -9 22 0 22 -67 155 -91 181 -10 11 -19 24 -19
28 0 6 -79 83 -112 108 -26 20 -148 75 -166 75 -10 0 -24 6 -30 13 -17 16
-338 17 -373 0 -13 -6 -48 -19 -76 -29 -29 -10 -53 -21 -53 -25 0 -4 -11 -10
-25 -13 -57 -15 -214 -195 -266 -306 -42 -90 -47 -103 -83 -235 -38 -133 -39
-178 -45 -1270 l-6 -1080 -30 -42 c-16 -24 -36 -43 -42 -43 -7 0 -13 -4 -13
-9 0 -5 -22 -16 -49 -25 -43 -14 -115 -16 -535 -16 -312 0 -487 4 -491 10 -3
6 -15 10 -26 10 -25 0 -89 48 -89 66 0 8 -4 14 -8 14 -5 0 -16 16 -25 35 -16
33 -17 177 -17 1968 l0 1933 33 54 c17 29 41 58 52 64 11 6 22 14 25 18 19 24
119 29 580 26 484 -3 485 -3 529 -26 53 -28 64 -38 90 -88 19 -35 21 -55 21
-217 0 -159 2 -177 15 -163 8 8 15 19 15 24 0 6 3 12 8 14 4 2 25 26 47 53 68
86 219 225 244 225 6 0 11 4 11 10 0 5 11 12 25 16 14 3 25 10 25 15 0 5 7 9
15 9 8 0 15 4 15 8 0 9 98 52 118 52 6 0 12 4 12 9 0 5 14 13 32 16 18 4 39
11 48 15 8 5 42 15 75 23 33 9 78 20 101 26 22 6 85 15 139 21 54 6 101 13
104 16 9 8 380 -2 480 -14z m-3561 -70 c73 -38 101 -77 121 -164 8 -32 11
-617 10 -1905 0 -1907 -1 -1925 -38 -1992 -20 -36 -72 -81 -101 -87 -14 -3
-33 -9 -42 -15 -22 -12 -975 -12 -982 0 -3 4 -19 11 -36 14 -42 9 -86 52 -115
113 l-25 53 0 1913 c0 1746 1 1916 16 1955 9 24 21 43 25 43 5 0 9 6 9 13 0
15 64 58 110 74 26 9 166 11 520 10 483 -2 485 -2 528 -25z"/>
</g>
</svg>
