<?xml version="1.0" encoding="utf-8"?>
<svg version="1.1"
     xmlns="http://www.w3.org/2000/svg"
     xmlns:xlink="http://www.w3.org/1999/xlink"
     x="0px"
     y="0px"
     viewBox="0 0 1000 1000"
     enable-background="new 0 0 1000 1000"
     xml:space="preserve">
	<metadata> Svg Vector Icons : http://www.onlinewebfonts.com/icon </metadata>
	<g>
		<g transform="translate(0.000000,511.000000) scale(0.100000,-0.100000)">
			<path d="M9053,4627.6c-49-24.5-192-141-314.6-259.5c-649.6-621-1595.5-2047-2265.6-3411.6c-167.5-341.2-390.2-839.6-380-845.8c4.1-4.1,192-112.4,418.8-243.1l414.7-237L7044.8-212c986.7,1301.3,2071.5,3389.2,2271.7,4371.8c57.2,288.1,49,449.4-26.6,498.5C9245,4686.9,9142.9,4674.6,9053,4627.6z"/>
			<path d="M9418.7,3851.3c0-2-22.5-67.4-49-147.1c-28.6-77.6-49-143-47-145c2.1-2.1,49-28.6,102.1-59.2c69.5-38.8,94-65.4,85.8-87.8c-6.1-16.4-171.6-308.5-367.7-647.6c-196.1-341.2-365.7-639.4-377.9-668c-32.7-69.5,6.1-155.3,85.8-187.9c128.7-55.2,145-36.8,480.1,535.2c480.1,815.1,582.2,1011.2,567.9,1072.5c-8.2,30.6-26.6,65.4-42.9,77.6C9825.2,3618.4,9418.7,3857.5,9418.7,3851.3z"/>
			<path d="M924.3,3120c-367.7-61.3-700.7-380-790.6-755.9c-44.9-194.1-44.9-5844.7,0-6040.8c79.7-337.1,331-610.8,670.1-727.3l126.7-42.9l2909.1-6.1c1601.6-2.1,2917.3,2,2925.4,10.2c10.2,10.2,12.3,83.8,4.1,165.5l-12.2,147.1h-2811c-1840.6,0-2856,8.2-2941.8,22.5c-234.9,36.8-394.3,153.2-496.4,361.6l-67.4,136.9v2952v2952l67.4,136.9c75.6,155.3,167.5,245.1,331,320.7l112.4,53.1l2903,6.1l2905,4.1l14.3,55.2c6.1,28.6,6.1,102.1-2,161.4l-12.3,110.3l-2864.1-2.1C2321.7,3138.3,983.6,3130.2,924.3,3120z"/>
			<path d="M1118.4,1549c-26.6-22.5-57.2-63.3-63.3-91.9c-14.3-59.2,30.6-161.4,79.7-181.8c45-16.3,4633.3-16.3,4678.2,0c49,20.4,94,122.6,79.7,181.8c-6.2,28.6-36.8,69.5-63.3,91.9c-51.1,40.9-89.9,40.9-2355.5,40.9C1208.3,1589.8,1169.5,1589.8,1118.4,1549z"/>
			<path d="M1102,141.4c-32.7-32.7-59.2-73.5-59.2-91.9c0-57.2,44.9-130.7,96-153.2c34.7-16.3,686.4-22.5,2273.7-22.5h2222.7l94,147.1c65.4,106.2,83.8,153.2,67.4,163.4c-14.3,8.2-1062.3,16.3-2328.9,16.3H1161.3L1102,141.4z"/>
			<path d="M5829.3-318.2C5727.1-453,5531-685.9,5396.2-835.1L5149-1102.7L5036.6-1785c-89.9-529.1-122.6-684.4-147.1-698.7c-65.4-36.8-128.7-120.5-141-190c-14.3-73.5,28.6-222.7,63.3-218.6c12.3,0,216.5,341.2,455.6,755.9c416.8,719.1,435.1,755.9,414.7,817.2c-30.6,85.8-28.6,143,8.2,212.5c79.7,155.3,304.4,141,390.2-24.5c65.4-126.7-40.9-302.3-183.9-302.3c-61.3,0-73.5-18.4-471.9-708.9c-224.7-388.1-424.9-739.5-445.3-778.3l-38.8-71.5l96,10.2c128.7,16.3,214.5,98,228.8,222.7c10.2,89.9,14.3,91.9,549.5,529.1c294.2,241.1,537.3,449.4,537.3,463.7c4.1,59.2,273.7,835.5,357.5,1025.5c51.1,118.5,91.9,216.6,87.8,218.6c-2.1,2.1-151.2,87.8-331,192c-179.8,104.2-353.4,204.3-388.1,224.7L6017.2-69L5829.3-318.2z"/>
			<path d="M1128.6-1202.8c-30.6-12.2-85.8-114.4-85.8-159.3c0-18.4,26.6-61.3,59.2-94l59.2-59.2h1820.2h1818.2l12.3,67.4c6.1,34.7,18.4,108.3,28.6,163.4l16.3,96l-1850.9-2.1C1988.7-1190.5,1142.9-1196.7,1128.6-1202.8z"/>
			<path d="M1102-2616.5c-63.3-51.1-65.4-169.6-2-232.9l47-45l1671.1-6.1l1669-4.1v163.4l-2,163.4h-1667C1218.5-2577.7,1147-2579.7,1102-2616.5z"/>
		</g>
	</g>
</svg>