<?xml version="1.0" standalone="no"?>
<!DOCTYPE svg PUBLIC "-//W3C//DTD SVG 20010904//EN"
 "http://www.w3.org/TR/2001/REC-SVG-20010904/DTD/svg10.dtd">
<svg version="1.0" xmlns="http://www.w3.org/2000/svg"
 width="512.000000pt" height="512.000000pt" viewBox="0 0 512.000000 512.000000"
 preserveAspectRatio="xMidYMid meet">

<g transform="translate(0.000000,512.000000) scale(0.100000,-0.100000)"
fill="#000000" stroke="none">
<path d="M2305 4679 c-825 -104 -1520 -676 -1773 -1459 -75 -232 -102 -409
-102 -668 0 -333 65 -618 211 -921 101 -210 221 -382 389 -555 176 -181 362
-317 585 -427 95 -47 129 -59 167 -59 81 0 159 45 193 110 7 14 122 303 254
642 150 382 241 629 241 650 0 85 -37 143 -131 204 -112 74 -177 173 -200 303
-31 171 73 366 235 442 128 60 244 60 372 0 162 -76 266 -271 235 -442 -23
-130 -88 -229 -200 -303 -94 -61 -131 -120 -131 -203 0 -21 93 -272 241 -651
133 -339 247 -629 255 -643 19 -37 76 -85 119 -99 64 -21 127 -8 249 53 505
251 890 697 1071 1239 77 232 105 412 105 673 0 423 -118 819 -347 1165 -92
139 -137 195 -258 319 -333 343 -772 563 -1249 626 -127 16 -413 18 -531 4z
m550 -439 c536 -92 1004 -445 1240 -935 294 -612 206 -1322 -232 -1847 -100
-121 -262 -263 -384 -336 l-35 -21 -157 402 c-87 221 -157 406 -157 411 0 4
24 34 54 66 223 241 287 585 167 896 -41 106 -100 194 -190 285 -166 165 -367
249 -601 249 -234 0 -435 -84 -601 -249 -90 -91 -149 -179 -190 -285 -121
-313 -55 -659 171 -899 l56 -60 -160 -408 -159 -409 -36 22 c-20 12 -71 48
-114 81 -321 242 -541 586 -633 987 -119 524 26 1091 383 1496 289 326 682
527 1128 574 111 12 317 3 450 -20z"/>
</g>
</svg>
