<svg version="1.0" xmlns="http://www.w3.org/2000/svg" height="40pt" viewBox="0 0 512 512">
  <path d="M449 10.7c-6.3 2-9 5.9-9 13.1 0 5.5-2.7 13.9-6.2 19.4-8.5 13.4-24.6 23.1-67.3 40.2-25.3 10.2-54.7 25-66.4 33.3-31.1 22.3-49 52.9-52.7 90.2l-.7 7.4-6.2-.6c-8.6-.8-16.2-3.5-35.5-12.6-26.1-12.4-33-14.6-50.8-16.1-11.2-1-19.4-.3-27.1 2.5-20.6 7.2-44 28.8-65.3 60C15.3 315.6-9.6 407.4 4 460.5c6.5 25.6 24.3 45 45.6 50.1 8.2 1.9 25.3 1.4 37.9-1.1 31.1-6.4 54.4-18.7 93-49 33.2-26 46.2-34.2 61.6-38.5 9.4-2.6 18.4-2.6 27.8 0 15.4 4.3 28.4 12.5 61.6 38.5 45.7 35.9 75.2 49.3 112.5 51.2 20 .9 31.8-3.4 45.1-16.8 16.4-16.5 24.2-42.3 22.4-74.9-1.8-33.5-9.2-65.1-23.8-101.5-26.4-65.9-67.8-118.7-102.8-131-7.7-2.8-15.9-3.5-27.1-2.5-17.2 1.5-28.8 5.1-50.1 15.7-5.9 2.9-14.1 6.7-18.3 8.3-7.3 2.9-20.8 5.9-21.8 4.9s2.3-19.4 4.9-27.9c7.1-22.4 21-40.2 43-55 13.6-9.1 30.1-17 65-31.1 55.6-22.6 75.2-39.9 79.4-70.3 1.6-11.1-.2-16.5-6.1-18.5-1.7-.6-3.1-1.1-3.2-1-.1 0-.8.3-1.6.6zM159 206c10.3 1.7 18.3 4.5 37 13.5 27.4 13 37.3 15.6 60 15.6 22.6 0 32.6-2.6 60-15.6 19.9-9.5 26.6-11.9 38.1-13.6 18.8-2.7 28.6.3 45.1 14.1 32.8 27.2 67.2 87.4 82.7 145 8.8 32.6 11.6 66.1 7.1 86.5-3.8 17.4-12.6 30.7-24.2 36.4-5.7 2.9-6.9 3.1-17.1 3.1-25.3 0-51.1-9.1-78.2-27.7-6-4.2-20.2-14.8-31.5-23.6-23.9-18.7-33.5-25.2-46.3-31.2-25.2-12-46.2-12-71.4 0-12.8 6-22.4 12.5-46.3 31.2-11.3 8.8-25.5 19.4-31.5 23.6-27.1 18.6-52.9 27.7-78.2 27.7-10.2 0-11.4-.2-17.1-3.1-11.6-5.7-20.4-19-24.2-36.4-4.5-20.4-1.7-53.9 7.1-86.5 17.5-64.8 58-131 93.9-153.5 9.9-6.2 20.1-7.8 35-5.5z"/>
  <path d="M370.5 278.4c-12.4 5.8-15.7 22.5-6.4 32.3 4.3 4.5 8.5 6.3 14.9 6.3 19.6 0 27.2-23.9 11.7-36.4-3.3-2.6-4.8-3.1-10.5-3.3-4.2-.2-7.8.2-9.7 1.1zM123 302v14.9l-15.2.3-15.3.3-.3 15.2-.3 15.3H123v31h31v-31h30v-31h-30v-30h-31v15zm210.5 16.2c-11.3 2.5-18 13.6-15 25 2.3 8.9 10.1 14.8 19.5 14.8 11.3 0 20-8.7 20-19.9 0-6.4-1.1-9.1-5.5-14-4.9-5.3-11.9-7.6-19-5.9zm82.1 0c-9.4 2-15.7 9.6-15.8 19-.1 12.1 8.1 20.8 19.7 20.8 11.9 0 20.4-8.6 20.5-20.5 0-12.3-12.1-21.9-24.4-19.3zm-41.1 41c-4.9 1.1-9.5 4.2-12.3 8.2-9 13.2.5 31.6 16.2 31.6 11.8 0 20.5-8.6 20.6-20.2 0-6-1.1-8.8-5.5-13.7-4.9-5.3-11.9-7.6-19-5.9z"/>
</svg>
