<?xml version="1.0" ?><svg id="Icons" style="enable-background:new 0 0 32 32;" version="1.1" viewBox="0 0 32 32" xml:space="preserve" xmlns="http://www.w3.org/2000/svg" xmlns:xlink="http://www.w3.org/1999/xlink"><path d="M29.7,17.3L28,15.6V14c0-3.3-1.3-6.2-3.5-8.5L23,12.2c-0.1,0.5-0.5,0.8-1,0.8c-0.1,0-0.1,0-0.2,0c-0.5-0.1-0.9-0.7-0.8-1.2  l2-8.9c0-0.3-0.2-0.7-0.5-0.8c-4-2-8.9-2-12.9,0C9.2,2.3,9,2.6,9,2.9l2,8.9c0.1,0.5-0.2,1.1-0.8,1.2c-0.1,0-0.1,0-0.2,0  c-0.5,0-0.9-0.3-1-0.8L7.5,5.5C5.3,7.8,4,10.7,4,14v1.6l-1.7,1.7C2,17.6,1.9,18,2.1,18.4C2.2,18.8,2.6,19,3,19h26  c0.4,0,0.8-0.2,0.9-0.6C30.1,18,30,17.6,29.7,17.3z"/><path d="M19.9,21c0.1,0.3,0.1,0.7,0.1,1c0,2.2-1.8,4-4,4s-4-1.8-4-4c0-0.3,0.1-0.7,0.1-1H6.7c0,0.3-0.1,0.7-0.1,1  c0,0.7,0.1,1.4,0.3,2.2C7,24.7,7.5,25,8,24.9c0.6-0.1,1.2,0.2,1.6,0.8s0.3,1.2-0.1,1.7c-0.3,0.4-0.3,1,0.1,1.3  c1.1,1,2.4,1.8,3.8,2.2c0.5,0.1,1-0.1,1.2-0.6c0.2-0.6,0.8-1,1.4-1s1.2,0.4,1.4,1c0.2,0.4,0.5,0.6,0.9,0.6c0.1,0,0.2,0,0.3,0  c1.4-0.4,2.7-1.2,3.8-2.2c0.4-0.4,0.4-0.9,0.1-1.3c-0.4-0.5-0.4-1.2-0.1-1.7c0.3-0.5,0.9-0.9,1.6-0.8c0.5,0.1,1-0.3,1.1-0.8  c0.2-0.7,0.3-1.5,0.3-2.2c0-0.3,0-0.7-0.1-1H19.9z"/></svg>