<?xml version="1.0" standalone="no"?>
<!DOCTYPE svg PUBLIC "-//W3C//DTD SVG 20010904//EN"
 "http://www.w3.org/TR/2001/REC-SVG-20010904/DTD/svg10.dtd">
<svg version="1.0" xmlns="http://www.w3.org/2000/svg"
 width="512.000000pt" height="512.000000pt" viewBox="0 0 512.000000 512.000000"
 preserveAspectRatio="xMidYMid meet">

<g transform="translate(0.000000,512.000000) scale(0.100000,-0.100000)"
fill="#000000" stroke="none">
<path d="M4490 5013 c-63 -20 -90 -59 -90 -131 0 -55 -27 -139 -62 -194 -85
-134 -246 -231 -673 -402 -253 -102 -547 -250 -664 -333 -311 -223 -490 -529
-527 -902 l-7 -74 -62 6 c-86 8 -162 35 -355 126 -261 124 -330 146 -508 161
-112 10 -194 3 -271 -25 -206 -72 -440 -288 -653 -600 -465 -681 -714 -1599
-578 -2130 65 -256 243 -450 456 -501 82 -19 253 -14 379 11 311 64 544 187
930 490 332 260 462 342 616 385 94 26 184 26 278 0 154 -43 284 -125 616
-385 457 -359 752 -493 1125 -512 200 -9 318 34 451 168 164 165 242 423 224
749 -18 335 -92 651 -238 1015 -264 659 -678 1187 -1028 1310 -77 28 -159 35
-271 25 -172 -15 -288 -51 -501 -157 -59 -29 -141 -67 -183 -83 -73 -29 -208
-59 -218 -49 -10 10 23 194 49 279 71 224 210 402 430 550 136 91 301 170 650
311 556 226 752 399 794 703 16 111 -2 165 -61 185 -17 6 -31 11 -32 10 -1 0
-8 -3 -16 -6z m-2900 -1953 c103 -17 183 -45 370 -135 274 -130 373 -156 600
-156 226 0 326 26 600 156 199 95 266 119 381 136 188 27 286 -3 451 -141 328
-272 672 -874 827 -1450 88 -326 116 -661 71 -865 -38 -174 -126 -307 -242
-364 -57 -29 -69 -31 -171 -31 -253 0 -511 91 -782 277 -60 42 -202 148 -315
236 -239 187 -335 252 -463 312 -252 120 -462 120 -714 0 -128 -60 -224 -125
-463 -312 -113 -88 -255 -194 -315 -236 -271 -186 -529 -277 -782 -277 -102 0
-114 2 -171 31 -116 57 -204 190 -242 364 -45 204 -17 539 71 865 175 648 580
1310 939 1535 99 62 201 78 350 55z"/>
<path d="M3705 2336 c-124 -58 -157 -225 -64 -323 43 -45 85 -63 149 -63 196
0 272 239 117 364 -33 26 -48 31 -105 33 -42 2 -78 -2 -97 -11z"/>
<path d="M1230 2100 l0 -149 -152 -3 -153 -3 -3 -152 -3 -153 156 0 155 0 0
-155 0 -155 155 0 155 0 0 155 0 155 150 0 150 0 0 155 0 155 -150 0 -150 0 0
150 0 150 -155 0 -155 0 0 -150z"/>
<path d="M3335 1938 c-113 -25 -180 -136 -150 -250 23 -89 101 -148 195 -148
113 0 200 87 200 199 0 64 -11 91 -55 140 -49 53 -119 76 -190 59z"/>
<path d="M4156 1938 c-94 -20 -157 -96 -158 -190 -1 -121 81 -208 197 -208
119 0 204 86 205 205 0 123 -121 219 -244 193z"/>
<path d="M3745 1528 c-49 -11 -95 -42 -123 -82 -90 -132 5 -316 162 -316 118
0 205 86 206 202 0 60 -11 88 -55 137 -49 53 -119 76 -190 59z"/>
</g>
</svg>
