<?xml version="1.0" standalone="no"?>
<!DOCTYPE svg PUBLIC "-//W3C//DTD SVG 20010904//EN"
 "http://www.w3.org/TR/2001/REC-SVG-20010904/DTD/svg10.dtd">
<svg version="1.0" xmlns="http://www.w3.org/2000/svg"
 width="512.000000pt" height="512.000000pt" viewBox="0 0 512.000000 512.000000"
 preserveAspectRatio="xMidYMid meet">

<g transform="translate(0.000000,512.000000) scale(0.100000,-0.100000)"
fill="#000000" stroke="none">
<path d="M2395 4940 c-242 -98 -445 -182 -452 -187 -9 -6 11 -65 77 -227 49
-120 91 -221 94 -223 4 -4 894 352 904 362 3 3 -152 393 -172 432 -11 21 -20
18 -451 -157z"/>
<path d="M2650 4254 c-239 -95 -439 -175 -443 -176 -5 -2 16 -66 47 -143 31
-77 56 -143 56 -147 0 -4 -19 -12 -42 -18 -154 -39 -400 -151 -548 -249 -334
-221 -608 -563 -741 -925 -140 -378 -161 -788 -59 -1166 94 -348 248 -610 511
-872 l128 -128 -352 -2 -352 -3 -3 -212 -2 -213 1920 0 1920 0 0 215 0 215
-1022 0 c-865 0 -1037 2 -1116 15 -111 18 -284 65 -280 75 2 4 27 26 55 49
132 104 215 272 235 474 3 28 22 36 916 401 502 205 915 376 918 379 4 3 -26
87 -66 185 l-73 180 -31 -13 c-251 -104 -1776 -725 -1780 -725 -2 0 -32 28
-65 63 -73 76 -159 129 -266 163 -115 37 -275 37 -390 0 -132 -42 -226 -107
-315 -218 l-38 -48 -15 48 c-27 83 -45 155 -58 232 -17 96 -17 363 0 460 102
590 524 1058 1091 1211 45 12 83 19 85 17 3 -2 50 -117 106 -254 55 -137 104
-252 107 -256 7 -6 873 339 887 354 3 3 -95 269 -219 590 -124 320 -228 591
-231 601 -4 9 -15 17 -24 16 -9 -1 -212 -79 -451 -175z m-657 -2985 c90 -25
142 -111 135 -222 -7 -119 -85 -190 -208 -190 -123 0 -201 71 -208 190 -11
168 116 268 281 222z"/>
<path d="M3230 2819 c-239 -103 -439 -189 -445 -192 -10 -4 60 -194 79 -213 6
-7 79 -43 163 -82 l152 -70 224 96 225 96 71 154 c39 85 71 160 71 167 0 12
-93 222 -101 229 -2 1 -200 -82 -439 -185z"/>
</g>
</svg>
