<?xml version='1.0' encoding='iso-8859-1'?>
<svg version="1.1" xmlns="http://www.w3.org/2000/svg" viewBox="0 0 314.186 314.186" xmlns:xlink="http://www.w3.org/1999/xlink" enable-background="new 0 0 314.186 314.186">
  <g>
    <path d="m258.697,89.648l-31.608-34.039 36.877-34.242-17.286-17.285-58.701,21.016v69.154l-183.021,174.827c-3.634,3.47-11.516,11.001 5.919,29.254 17.437,18.252 25.317,10.721 28.951,7.25l183.51-175.291h74.19l16.658-58.701-17.355-17.356-38.134,35.413z"/>
    <path d="m189.776,170.604l-35.706,35.706 104.057,98.398c2.992,2.831 9.482,8.97 26.994-9.21 17.51-18.176 11.017-24.316 8.024-27.147l-103.369-97.747z"/>
    <polygon points="135,130.856 46.845,42.7 36,22.104 12.895,15.584 2.48,25.999 9,49.104 29.596,59.949 117.752,148.104  "/>
  </g>
</svg>
