<?xml version="1.0" encoding="iso-8859-1"?>
<!-- Generator: Adobe Illustrator 18.1.1, SVG Export Plug-In . SVG Version: 6.00 Build 0)  -->
<svg version="1.1" id="Capa_1" xmlns="http://www.w3.org/2000/svg" xmlns:xlink="http://www.w3.org/1999/xlink" x="0px" y="0px"
	 viewBox="0 0 581.176 581.176" style="enable-background:new 0 0 581.176 581.176;" xml:space="preserve">
<g>
	<g>
		<polygon points="386.046,344.565 381.906,348.706 116.235,83.036 124.541,74.73 99.623,33.224 33.224,0 0,33.224 33.224,99.623 
			74.73,124.541 83.036,116.235 237.653,270.877 0,508.529 72.647,581.176 310.3,343.524 348.706,381.906 344.565,386.071 
			344.299,427.334 498.141,581.176 581.176,498.141 427.31,344.299 		"/>
		<path d="M298.87,209.659l72.647,72.647l4.649-4.649c18.234,8.233,38.406,12.931,59.716,12.931
			c80.227,0,145.294-65.068,145.294-145.294c0-14.65-2.228-28.792-6.272-42.16l-90.591,90.591l-72.647-24.216l-24.216-72.647
			l90.591-90.591C464.675,2.228,450.533,0,435.882,0c-80.227,0-145.294,65.068-145.294,145.294c0,21.31,4.698,41.481,12.931,59.716
			L298.87,209.659z"/>
	</g>
</g>
<g>
</g>
<g>
</g>
<g>
</g>
<g>
</g>
<g>
</g>
<g>
</g>
<g>
</g>
<g>
</g>
<g>
</g>
<g>
</g>
<g>
</g>
<g>
</g>
<g>
</g>
<g>
</g>
<g>
</g>
</svg>
